<svg width="16" height="16" viewBox="0 0 216 32" fill="none" xmlns="http://www.w3.org/2000/svg">
<path d="M2.59123 8.8325C2.83304 8.525 3.15151 8.10875 3.40654 7.81125C4.17032 6.99125 4.26942 6.88375 4.96449 6.2775C5.17063 6.1175 5.41509 5.925 5.65426 5.74375C3.89018 7.15625 3.66554 8.72 5.28427 9.68625C5.28163 9.68625 5.28163 9.68625 5.28163 9.68875C7.54521 10.9788 12.5058 10.7 16.4198 9.0475C20.211 7.4475 21.6103 5.15875 19.7392 3.79875C18.0967 3.5075 16.1384 3.47375 14.0664 3.73625L13.851 3.4L14.0294 2.8425C15.2477 2.73875 16.4053 2.76375 17.4043 2.925C17.6461 2.96375 17.9646 3.03 18.2024 3.0775C18.6623 3.18375 18.912 3.2475 19.212 3.33875C19.5185 3.425 19.7802 3.51125 20.2361 3.67125C20.6827 3.8375 20.8756 3.9125 21.2337 4.08125C21.6348 4.25433 22.0244 4.4501 22.4005 4.6675C25.3817 6.44125 23.5277 9.6775 18.2672 11.895C13.0211 14.105 6.33611 14.4525 3.34047 12.7C3.33915 12.6975 3.33518 12.695 3.32725 12.6925H3.33254C1.69663 11.7125 1.52484 10.29 2.59123 8.8325V8.8325ZM16.2401 21.2325L16.1978 19.24L14.7007 17.665C9.75461 18.725 4.89313 18.4975 2.18952 16.9913C2.18027 16.9813 2.1578 16.9713 2.14855 16.9613C0.618354 16.07 0.24043 14.92 0.355393 13.67C-0.00271022 15.4987 -0.0317813 16.1587 0.0197538 17.7237C0.0831817 18.7037 0.681782 19.6075 1.88559 20.32L1.89484 20.33C4.77685 22.025 10.7814 22.3925 16.2401 21.2325ZM22.4838 23.5137C15.5028 26.1625 6.76557 26.3188 2.97047 23.8675C3.38032 24.815 3.93798 25.6989 4.62488 26.49C8.10813 28.74 16.1278 28.5963 22.5327 26.165C26.2815 24.7438 28.6469 22.8525 29.2679 21.08L29.4424 20.5463C29.856 19.1938 29.9339 18.0675 30 17.065C29.9247 19.2413 27.2145 21.7162 22.4838 23.5137V23.5137ZM7.07346 28.615C7.29282 28.8125 7.9826 29.6138 11.4777 30.4988C12.4225 30.6963 14.8011 31.33 19.1948 30.4088L19.2212 30.03L18.8737 29.515C14.7971 30.4275 10.2686 30.1225 7.07346 28.615V28.615ZM17.1611 12.8537L20.873 15.515C20.873 15.515 21.6672 16.0562 20.9179 16.4362C20.1713 16.8125 18.2539 17.7338 18.2539 17.7338L16.3604 17.065L15.4103 17.465L17.0858 18.8412L17.099 20.9825L18.0835 20.5687L18.7363 18.76C18.7363 18.76 20.7409 18.03 21.5363 17.755C22.3358 17.4863 22.2288 18.4063 22.2288 18.4063L21.835 22.795L23.1432 22.245L25.2971 16.3237C25.2971 16.3237 26.4388 15.7988 27.2422 15.3375C28.0443 14.8763 28.3192 14.1113 28.3192 14.1113C28.3192 14.1113 27.5369 13.7925 26.6357 14.0488C25.7345 14.3025 24.5597 14.755 24.5597 14.755L18.4654 12.3063L17.1611 12.8537V12.8537ZM9.30797 4.43375L11.8279 6.3325L12.5164 6.235L11.1447 4.53125C11.1447 4.53125 10.8461 4.17875 11.2478 4.095C11.6522 4.01 12.6749 3.8125 12.6749 3.8125L13.444 4.39375L13.962 4.32125L13.3753 3.43875L13.6845 2.46L13.1837 2.52875L12.5904 3.27375C12.5904 3.27375 11.5491 3.36625 11.1395 3.39875C10.7272 3.42875 10.9042 3.01 10.9042 3.01L11.6944 1L11.002 1.09625L9.17848 3.6075C9.17848 3.6075 8.57063 3.7125 8.13059 3.83125C7.68924 3.94875 7.45667 4.27125 7.45667 4.27125C7.45667 4.27125 7.78042 4.51875 8.23631 4.51C8.69616 4.50125 9.30797 4.43375 9.30797 4.43375V4.43375ZM21.7623 28.8312L20.1317 28.025L19.7564 28.1487L20.7224 28.9662C20.7224 28.9662 20.9285 29.1325 20.7118 29.2212C20.4951 29.3087 19.9427 29.5238 19.9427 29.5238L19.4868 29.3313L19.2159 29.4238L19.5952 29.8063L19.5582 30.365L19.841 30.2725L20.0524 29.8188C20.0524 29.8188 20.6259 29.6575 20.8545 29.6C21.0818 29.5412 21.0302 29.7937 21.0302 29.7937L20.8148 31L21.1915 30.8762L21.9301 29.2812C21.9301 29.2812 22.2565 29.16 22.4904 29.0487C22.7243 28.9375 22.8168 28.7325 22.8168 28.7325C22.8168 28.7325 22.6093 28.625 22.353 28.6787C22.0953 28.73 21.7623 28.8312 21.7623 28.8312Z" fill="black"/>
</svg>